# Blender v2.90.1 OBJ File: ''
# www.blender.org
o Cube_Cube.001
v -0.338583 0.338708 -0.334044
v -0.338583 -0.338444 -0.334044
v -0.338583 0.338708 0.343108
v -0.338583 -0.338444 0.343108
v 0.338569 0.338708 -0.334044
v 0.338569 -0.338444 -0.334044
v 0.338569 0.338708 0.343108
v 0.338569 -0.338444 0.343108
vt 0.993571 -2.005071
vt -0.008453 -1.003047
vt -0.008453 -2.005071
vt 0.993571 -1.003047
vt -0.008453 -0.001023
vt 0.993571 -0.001023
vt -0.008453 1.001001
vt 0.993571 1.001001
vt -0.008453 2.003025
vt -1.010477 1.001001
vt -1.010477 -0.001023
vt 1.995595 -0.001023
vt 0.993571 2.003025
vt 1.995595 1.001001
vn -1.0000 0.0000 0.0000
vn 0.0000 0.0000 1.0000
vn 1.0000 0.0000 0.0000
vn 0.0000 0.0000 -1.0000
vn 0.0000 1.0000 0.0000
vn 0.0000 -1.0000 0.0000
s off
f 2/1/1 3/2/1 1/3/1
f 4/4/2 7/5/2 3/2/2
f 8/6/3 5/7/3 7/5/3
f 6/8/4 1/9/4 5/7/4
f 7/5/5 1/10/5 3/11/5
f 4/12/6 6/8/6 8/6/6
f 2/1/1 4/4/1 3/2/1
f 4/4/2 8/6/2 7/5/2
f 8/6/3 6/8/3 5/7/3
f 6/8/4 2/13/4 1/9/4
f 7/5/5 5/7/5 1/10/5
f 4/12/6 2/14/6 6/8/6
